<?xml version="1.0" encoding="UTF-8" standalone="no"?>
<!-- Created with Inkscape (http://www.inkscape.org/) -->

<svg
   width="52.623787mm"
   height="52.623787mm"
   viewBox="0 0 52.623787 52.623787"
   version="1.1"
   id="svg5"
   sodipodi:docname="drawing.svg"
   inkscape:version="1.1.1 (3bf5ae0d25, 2021-09-20)"
   xmlns:inkscape="http://www.inkscape.org/namespaces/inkscape"
   xmlns:sodipodi="http://sodipodi.sourceforge.net/DTD/sodipodi-0.dtd"
   xmlns="http://www.w3.org/2000/svg"
   xmlns:svg="http://www.w3.org/2000/svg">
  <sodipodi:namedview
     id="namedview7"
     pagecolor="#ffffff"
     bordercolor="#666666"
     borderopacity="1.0"
     inkscape:pageshadow="2"
     inkscape:pageopacity="0.0"
     inkscape:pagecheckerboard="0"
     inkscape:document-units="mm"
     showgrid="false"
     inkscape:zoom="2.9362514"
     inkscape:cx="105.06594"
     inkscape:cy="97.573389"
     inkscape:window-width="1920"
     inkscape:window-height="1013"
     inkscape:window-x="-9"
     inkscape:window-y="-9"
     inkscape:window-maximized="1"
     inkscape:current-layer="layer1" />
  <defs
     id="defs2" />
  <g
     inkscape:label="Layer 1"
     inkscape:groupmode="layer"
     id="layer1"
     transform="translate(-51.182041,-45.865597)">
    <circle
       style="fill:#000000;stroke-width:0.264583"
       id="path3710"
       cx="77.493935"
       cy="72.17749"
       r="26.311893" />
    <g
       id="g11602"
       transform="matrix(1,0,0,1.0408496,4.5955704,-4.2225384)">
      <path
         style="fill:#ffffff;stroke-width:0.264583"
         id="path11434"
         d="m 55.10114,88.161949 c -2.711313,2.818508 -0.503659,0.465484 8.861887,-4.83598 0.117999,-0.0668 0.790109,-0.570272 0.813066,-0.59073 0.122013,-0.108728 0.219152,-0.242504 0.328791,-0.363699 0.118712,-0.131223 0.237507,-0.262369 0.356261,-0.393554 0.944689,-1.161855 1.736288,-2.435392 2.620732,-3.641537 0.274561,-0.374428 0.55833,-0.742014 0.837495,-1.11302 0.365218,-0.557687 1.246711,-1.886948 1.565621,-2.445097 0.265346,-0.464405 0.483754,-0.954334 0.741836,-1.422813 0.302244,-0.548648 0.629804,-1.082991 0.938767,-1.627883 0.333448,-0.588073 0.639351,-1.191989 0.988417,-1.770928 0.384506,-0.637721 0.80745,-1.251461 1.211176,-1.877192 0.881276,-2.038824 2.13245,-3.880851 3.309618,-5.75356 0.36268,-0.576973 0.744728,-1.142308 1.086099,-1.732139 0.292256,-0.504971 0.538779,-1.035086 0.813398,-1.549863 0.25197,-0.472327 0.510886,-0.940917 0.766331,-1.411376 0.595024,-1.006687 1.113353,-2.05485 1.660252,-3.087596 0.115316,-0.217761 0.240311,-0.430543 0.348369,-0.651995 0.545148,-1.117227 -0.136943,0.129206 0.403453,-0.832633 0.06816,-0.344744 0.07667,-0.108179 -0.03386,-0.323802 -0.01495,-0.02917 0.005,-0.08444 -0.02606,-0.09482 -0.06465,-0.02158 -0.13799,-6.4e-5 -0.203676,0.01814 -0.167317,0.04638 -0.330361,0.108055 -0.490823,0.174375 -0.488619,0.20195 -0.970399,0.420064 -1.455597,0.630096 -2.463708,0.511083 -1.067194,0.0055 -3.913262,2.130426 0,0 0.42939,-0.214535 0.42939,-0.214535 v 0 c -2.843589,2.046955 -1.458921,1.55296 -3.900027,2.059571 -0.483225,0.2186 -0.967574,0.434731 -1.449673,0.655803 -0.03395,0.01557 -0.570424,0.254897 -0.699051,0.356647 -0.02283,0.01806 -0.02657,0.05194 -0.0427,0.07617 -0.03552,0.05335 -0.08801,0.09684 -0.112051,0.156257 -0.02163,0.05347 -0.01378,0.114536 -0.02067,0.171804 0.192115,0.357216 0.03888,0.01305 0.133622,0.515843 0.02575,0.136661 0.07854,0.26716 0.106332,0.40342 0.141645,0.694394 0.142217,1.404623 0.184349,2.109044 -0.135688,1.628326 0.003,0.535368 -0.366963,2.316011 -0.09144,0.440124 -0.149038,0.887531 -0.257855,1.323683 -0.27809,1.114625 -0.675067,2.290363 -1.220876,3.301141 -0.374981,0.694424 -0.844963,1.333183 -1.267444,1.999774 -0.355997,0.600409 -0.683391,1.218727 -1.067992,1.801228 -0.438884,0.664718 -0.926004,1.296392 -1.399932,1.936593 -0.446563,0.603235 -0.889468,1.209826 -1.361352,1.793465 -0.474071,0.586349 -0.98339,1.143297 -1.475186,1.714857 -1.62772,1.891724 -0.83239,0.98738 -2.44726,2.785057 -0.345176,0.395066 -0.682923,0.796748 -1.035528,1.185199 -1.375649,1.515499 -2.850354,2.946598 -4.423867,4.255677 -0.175378,0.144124 -0.350758,0.288248 -0.526137,0.432369 -0.160326,0.119166 -0.324734,0.233027 -0.480978,0.357494 -0.04689,0.03736 -0.08073,0.08931 -0.127296,0.12708 -0.0437,0.03545 -0.191102,0.118755 -0.141964,0.09134 8.896881,-4.964215 11.399932,-6.947974 8.209644,-4.474667 0,0 -6.766832,5.330854 -6.766832,5.330854 z" />
      <path
         style="fill:#ffffff;stroke-width:0.264583"
         id="path11436"
         d="m 73.224687,57.239232 c -0.263106,0.323494 -0.382156,0.403632 -0.497993,0.824125 -0.0452,0.164062 -0.03574,0.338716 -0.06479,0.506392 -0.137107,0.791482 -0.264663,0.747672 -0.03795,1.588419 0.08597,0.318814 0.243098,0.614033 0.364647,0.921049 0.745326,1.194386 1.241255,2.510556 1.707067,3.831656 0.18328,0.519808 0.362275,1.041219 0.531382,1.565809 0.177927,0.551947 0.316086,1.116764 0.509605,1.663439 0.211246,0.596754 0.46911,1.175966 0.703665,1.763949 0.214727,0.639205 0.438553,1.275424 0.64418,1.917614 0.213703,0.667409 0.411723,1.33975 0.613687,2.010805 0.20525,0.681971 0.373441,1.375772 0.607951,2.048243 0.330441,0.947557 1.30524,3.209218 1.742686,4.095649 0.348226,0.705628 0.744361,1.386586 1.116539,2.079879 1.089835,2.494769 0.598409,1.679932 2.068174,3.869775 0.34589,0.51535 0.690322,1.03251 1.064485,1.527714 0.115009,0.152215 1.566791,1.941637 1.882127,2.110031 0.400722,0.213995 0.889365,0.185791 1.334048,0.278686 1.154004,0.659188 0.174998,0.290512 1.843333,0.139253 0.110276,-0.01 0.211222,0.06654 0.316833,0.09981 0,0 0.396478,-0.270569 0.396478,-0.270569 v 0 c -0.103613,-0.03027 -0.316153,0.01701 -0.310837,-0.09081 0.06836,-1.38616 0.819816,-0.118938 -0.04821,-1.221158 0.0071,-0.354147 0.127111,-0.724434 0.02117,-1.062437 -0.120036,-0.382997 -0.452334,-0.663307 -0.668115,-1.001736 -0.272957,-0.428101 -0.536519,-0.862174 -0.797859,-1.297464 -0.314124,-0.523208 -0.639924,-1.040148 -0.928452,-1.577893 -0.32979,-0.614643 -0.616831,-1.251283 -0.925245,-1.876925 -0.362418,-0.655314 -0.724839,-1.310632 -1.087258,-1.965946 -0.64394,-1.891456 -0.890029,-2.520741 -1.416828,-4.43157 -0.1974,-0.716018 -0.357399,-1.441871 -0.545906,-2.160281 -0.180621,-0.688345 -0.391084,-1.368844 -0.561436,-2.059804 -0.451101,-1.829729 -0.498792,-2.309091 -0.81457,-4.157467 -0.07492,-0.673048 -0.129164,-1.348723 -0.224774,-2.019145 -0.08412,-0.58986 -0.223808,-1.170723 -0.314132,-1.759665 -0.325652,-2.123372 -0.497959,-4.281244 -0.267105,-6.423995 -0.0173,-0.649488 0.05208,-1.303658 -0.2473,-1.911126 -0.08922,-0.18103 -0.273365,-0.297222 -0.402143,-0.452617 -0.08938,-0.107856 -0.144029,-0.246954 -0.25178,-0.336462 -0.255178,-0.211974 -0.406059,-0.149615 -0.704276,-0.136205 0,0 -6.351101,3.370974 -6.351101,3.370974 z" />
      <path
         style="fill:#ffffff;stroke-width:0.264583"
         id="path11438"
         d="m 96.533291,75.301601 c 0.774877,-0.872635 0.622945,-0.399198 0.686683,-1.054687 0.01543,-0.158758 0.15117,-0.350674 0.05209,-0.475681 -0.220824,-0.278612 -1.558534,-0.155647 -1.602574,-0.154239 -0.474636,0.01516 -0.948814,0.04233 -1.42322,0.06349 -1.807588,0.06022 -1.971535,0.08993 -3.863835,0.0443 -0.788167,-0.019 -1.575064,-0.08255 -2.363406,-0.09179 -1.049737,-0.0123 -2.099524,0.02019 -3.149309,0.02719 -1.261533,0.0084 -2.524585,0.08068 -3.78464,0.019 -1.176874,-0.05761 -2.343174,-0.250891 -3.514759,-0.376335 -1.118422,-0.165542 -6.03324,-0.875628 -7.112352,-1.105924 -1.463625,-0.312357 -4.403256,-1.231708 -5.867848,-1.718985 -0.793393,-0.263965 -1.543224,-0.684419 -2.366029,-0.83322 -0.929186,-0.168041 -1.88718,-0.07107 -2.830771,-0.106604 -1.337131,-0.242889 -2.681092,0.08848 -4.018162,0.0097 -0.277895,-0.01638 -0.540535,-0.133408 -0.810803,-0.200112 0,0 -0.395042,0.272658 -0.395042,0.272658 v 0 c 0.270282,0.06673 0.567612,0.06474 0.810846,0.200174 0.697055,0.388117 1.010776,1.319339 1.901104,1.454129 0.536354,0.318392 1.010981,0.778121 1.609061,0.955177 0.964323,0.285481 1.993486,0.267796 2.989607,0.406224 1.120158,0.155662 2.240384,0.311041 3.359204,0.476046 4.216503,0.621855 2.777566,0.341222 6.812884,1.341866 1.046267,0.259445 2.090622,0.526542 3.135933,0.789816 0.941841,0.285834 1.914722,0.484399 2.825523,0.857506 0.739321,0.302861 1.399007,0.772049 2.097819,1.159322 0.578509,0.320604 1.139685,0.674336 1.73414,0.964309 0.508704,0.248142 1.052952,0.416549 1.56977,0.647324 1.218973,0.544303 1.087496,0.50959 2.091317,1.169554 0.196376,0.159099 0.395732,0.314592 0.589129,0.477297 0.169974,0.143 0.449861,0.509953 0.755452,0.447757 0.188928,-0.03845 0.340061,-0.181803 0.509214,-0.27432 0.477832,-0.261342 0.344257,-0.211616 1.038471,-0.719484 0,0 8.534501,-4.671425 8.534501,-4.671425 z" />
    </g>
  </g>
</svg>
