<?xml version="1.0" standalone="no"?>
<!DOCTYPE svg PUBLIC "-//W3C//DTD SVG 20010904//EN"
 "http://www.w3.org/TR/2001/REC-SVG-20010904/DTD/svg10.dtd">
<svg version="1.0" xmlns="http://www.w3.org/2000/svg"
 width="700.000000pt" height="700.000000pt" viewBox="0 0 700.000000 700.000000"
 preserveAspectRatio="xMidYMid meet">
<metadata>
Created by potrace 1.14, written by Peter Selinger 2001-2017
</metadata>
<g transform="translate(0.000000,700.000000) scale(0.100000,-0.100000)"
fill="#000000" stroke="none">
<path d="M3280 6994 c-19 -2 -84 -9 -145 -14 -639 -62 -1264 -315 -1795 -726
-149 -115 -481 -446 -595 -594 -410 -532 -653 -1132 -727 -1795 -17 -155 -17
-575 0 -730 75 -673 332 -1300 748 -1820 114 -143 339 -372 484 -494 537 -451
1163 -717 1885 -803 142 -17 586 -17 730 0 682 79 1268 318 1802 734 138 107
389 351 512 498 451 538 717 1162 803 1885 16 139 16 595 0 730 -77 629 -275
1158 -620 1649 -234 333 -577 668 -917 896 -460 308 -968 495 -1535 566 -117
15 -552 27 -630 18z m1540 -654 c0 -3 -50 -107 -111 -230 l-112 -225 -1 -315
c-1 -341 4 -401 59 -750 18 -118 39 -264 45 -325 22 -222 81 -534 154 -815 24
-91 46 -176 49 -190 l6 -25 458 -4 c252 -1 532 -4 623 -4 91 -1 289 2 440 7
261 8 276 7 297 -10 20 -18 21 -22 9 -77 -20 -98 -37 -109 -666 -468 -311
-177 -590 -341 -620 -364 -30 -23 -77 -55 -103 -70 -46 -27 -50 -27 -81 -13
-31 15 -30 12 81 -213 115 -234 267 -505 333 -594 56 -76 60 -88 60 -171 0
-67 3 -82 25 -110 19 -25 22 -33 10 -38 -16 -6 -39 -81 -30 -96 3 -6 14 -10
23 -10 14 0 12 -4 -7 -19 -17 -13 -35 -17 -71 -13 -28 2 -70 -2 -103 -12 l-57
-16 -42 27 c-28 17 -70 31 -121 39 -43 7 -89 20 -103 29 -28 18 -198 220 -266
315 -76 107 -244 373 -276 436 -16 33 -51 110 -76 173 -26 62 -80 177 -121
255 -67 129 -187 399 -246 554 l-24 63 -90 45 c-49 24 -157 64 -240 88 -160
48 -679 186 -698 186 -7 0 -25 -25 -41 -55 -44 -84 -205 -340 -278 -441 -35
-49 -128 -184 -206 -300 -164 -244 -255 -356 -332 -414 -30 -23 -156 -102
-280 -177 -292 -177 -497 -307 -805 -513 -250 -167 -295 -195 -295 -186 0 18
164 180 265 263 66 54 306 251 533 436 226 186 412 340 412 343 0 2 -37 -19
-83 -48 -294 -184 -429 -268 -637 -393 -342 -207 -517 -309 -500 -292 8 8 64
56 124 107 147 125 363 337 501 490 176 196 672 785 774 919 88 115 271 373
271 381 0 4 -19 10 -42 13 -24 4 -164 25 -313 47 -148 22 -351 49 -450 60
-233 26 -279 40 -390 115 -49 34 -103 65 -119 69 -18 4 -65 43 -122 101 -57
58 -103 97 -121 101 -15 3 -41 9 -57 13 l-29 7 26 17 c24 16 30 16 89 1 56
-15 86 -15 263 -5 142 9 220 9 270 2 39 -6 140 -11 225 -11 181 0 234 -10 393
-76 117 -49 526 -186 539 -182 4 2 35 48 69 103 221 358 266 469 351 879 40
190 42 210 42 371 0 138 -4 193 -23 293 -29 151 -35 141 139 224 69 32 132 67
140 78 8 10 134 84 280 165 278 153 291 162 392 251 82 72 94 78 217 104 60
13 140 39 190 62 47 23 109 48 136 58 46 16 51 16 63 2 6 -9 12 -18 12 -22z"/>
<path d="M3746 4349 c-32 -68 -91 -176 -131 -239 -40 -63 -110 -185 -155 -270
-45 -85 -89 -166 -97 -178 -8 -13 -13 -25 -11 -27 8 -7 749 -117 755 -111 8 7
-64 247 -127 426 -111 312 -130 369 -152 444 l-23 80 -59 -125z"/>
</g>
</svg>
